<?xml version="1.0" encoding="utf-8"?>
<!-- Generator: Adobe Illustrator 16.0.0, SVG Export Plug-In . SVG Version: 6.00 Build 0)  -->
<!DOCTYPE svg PUBLIC "-//W3C//DTD SVG 1.1//EN" "http://www.w3.org/Graphics/SVG/1.1/DTD/svg11.dtd">
<svg version="1.1" xmlns="http://www.w3.org/2000/svg" xmlns:xlink="http://www.w3.org/1999/xlink" x="0px" y="0px" width="2900px"
	 height="100px" viewBox="0 0 2900 100" enable-background="new 0 0 2900 100" xml:space="preserve">
<g id="Layer_1">
	
		<image display="none" overflow="visible" width="2900" height="100" xlink:href="E:\Cindy\heydouga\201712_イッたボタン\参考\heart.png" >
	</image>
	<path fill="#ED1C24" d="M649.977,47.484c0.342-0.809,1.121-1.375,2.029-1.375c1.221,0,2.099,1.044,2.208,2.29
		c0,0,0.064,0.311-0.069,0.866c-0.179,0.759-0.601,1.432-1.166,1.945l-3.002,2.68l-2.953-2.68c-0.565-0.514-0.987-1.186-1.166-1.945
		c-0.134-0.556-0.074-0.866-0.074-0.866c0.113-1.246,0.992-2.29,2.213-2.29C648.904,46.109,649.634,46.675,649.977,47.484
		L649.977,47.484z M649.977,47.484"/>
	<circle fill="#ED1C24" cx="150" cy="50" r="2.417"/>
	<path fill="#ED1C24" d="M271.917,50.002c0,12.102-9.813,21.915-21.919,21.915c-12.103,0-21.915-9.813-21.915-21.915
		c0-12.106,9.813-21.919,21.915-21.919C262.104,28.083,271.917,37.896,271.917,50.002z"/>
	<path fill="#ED1C24" d="M377.417,50.003c0,15.139-12.275,27.414-27.42,27.414c-15.14,0-27.414-12.275-27.414-27.414
		c0-15.145,12.274-27.42,27.414-27.42C365.142,22.583,377.417,34.858,377.417,50.003z"/>
	<path fill="#ED1C24" d="M478.417,50.003c0,15.69-12.723,28.414-28.42,28.414c-15.692,0-28.414-12.724-28.414-28.414
		c0-15.697,12.722-28.42,28.414-28.42C465.694,21.583,478.417,34.306,478.417,50.003z"/>
	<path fill="#ED1C24" d="M649.997,79.167c-16.081,0-29.164-13.083-29.164-29.164c0-16.084,13.083-29.17,29.164-29.17
		c16.084,0,29.17,13.086,29.17,29.17C679.167,66.084,666.081,79.167,649.997,79.167z M649.997,22.333
		c-15.254,0-27.664,12.413-27.664,27.67c0,15.254,12.41,27.664,27.664,27.664c15.257,0,27.67-12.41,27.67-27.664
		C677.667,34.746,665.254,22.333,649.997,22.333z"/>
	<path fill="#ED1C24" d="M749.959,45.544c0.605-1.432,1.985-2.435,3.594-2.435c2.162,0,3.717,1.85,3.91,4.056
		c0,0,0.114,0.55-0.122,1.534c-0.316,1.345-1.063,2.536-2.065,3.445l-5.316,4.746l-5.23-4.746c-1.002-0.91-1.749-2.101-2.065-3.445
		c-0.236-0.984-0.131-1.534-0.131-1.534c0.2-2.206,1.757-4.056,3.919-4.056C748.06,43.109,749.352,44.112,749.959,45.544
		L749.959,45.544z M749.959,45.544"/>
	<path fill="#ED1C24" d="M849.94,43.496c0.884-2.09,2.897-3.553,5.245-3.553c3.155,0,5.425,2.7,5.707,5.919
		c0,0,0.167,0.803-0.179,2.239c-0.461,1.962-1.552,3.701-3.014,5.028l-7.76,6.927l-7.634-6.927
		c-1.463-1.328-2.553-3.066-3.015-5.028c-0.346-1.436-0.191-2.239-0.191-2.239c0.292-3.22,2.564-5.919,5.72-5.919
		C847.168,39.943,849.054,41.406,849.94,43.496L849.94,43.496z M849.94,43.496"/>
	<path fill="#ED1C24" d="M949.926,41.771c1.117-2.645,3.666-4.495,6.635-4.495c3.992,0,6.863,3.416,7.221,7.489
		c0,0,0.211,1.016-0.227,2.833c-0.582,2.483-1.963,4.682-3.813,6.362l-9.816,8.764l-9.658-8.764c-1.852-1.68-3.23-3.879-3.814-6.362
		c-0.438-1.817-0.242-2.833-0.242-2.833c0.369-4.073,3.244-7.489,7.236-7.489C946.418,37.276,948.803,39.127,949.926,41.771
		L949.926,41.771z M949.926,41.771"/>
	<path fill="#ED1C24" d="M1049.91,40.047c1.352-3.199,4.434-5.437,8.025-5.437c4.83,0,8.303,4.131,8.732,9.058
		c0,0,0.258,1.229-0.271,3.427c-0.705,3.003-2.375,5.664-4.611,7.695l-11.875,10.6l-11.684-10.6
		c-2.238-2.032-3.906-4.692-4.611-7.695c-0.529-2.198-0.293-3.427-0.293-3.427c0.445-4.927,3.924-9.058,8.752-9.058
		C1045.666,34.61,1048.553,36.848,1049.91,40.047L1049.91,40.047z M1049.91,40.047"/>
	<path fill="#ED1C24" d="M1149.904,39.551c1.42-3.358,4.656-5.708,8.427-5.708c5.069,0,8.716,4.337,9.168,9.51
		c0,0,0.27,1.29-0.286,3.597c-0.74,3.153-2.492,5.946-4.842,8.079l-12.467,11.128l-12.265-11.128
		c-2.35-2.133-4.101-4.926-4.842-8.079c-0.556-2.307-0.308-3.597-0.308-3.597c0.469-5.172,4.119-9.51,9.189-9.51
		C1145.45,33.843,1148.479,36.192,1149.904,39.551L1149.904,39.551z M1149.904,39.551"/>
	<path fill="#ED1C24" d="M1249.904,39.551c1.42-3.358,4.656-5.708,8.427-5.708c5.069,0,8.716,4.337,9.168,9.51
		c0,0,0.27,1.29-0.286,3.597c-0.74,3.153-2.492,5.946-4.842,8.079l-12.467,11.128l-12.265-11.128
		c-2.35-2.133-4.101-4.926-4.842-8.079c-0.556-2.307-0.308-3.597-0.308-3.597c0.469-5.172,4.119-9.51,9.189-9.51
		C1245.45,33.843,1248.479,36.192,1249.904,39.551L1249.904,39.551z M1249.904,39.551"/>
	<path fill="#ED1C24" d="M1349.906,39.811c1.385-3.274,4.541-5.566,8.218-5.566c4.943,0,8.499,4.229,8.939,9.273
		c0,0,0.264,1.257-0.279,3.507c-0.722,3.075-2.43,5.799-4.721,7.878l-12.157,10.852l-11.959-10.852
		c-2.291-2.08-3.998-4.803-4.721-7.878c-0.543-2.25-0.301-3.507-0.301-3.507c0.457-5.044,4.016-9.273,8.961-9.273
		C1345.563,34.245,1348.518,36.537,1349.906,39.811L1349.906,39.811z M1349.906,39.811"/>
	<path fill="#ED1C24" d="M1450.152,41.117c1.27-3.001,4.163-5.102,7.534-5.102c4.531,0,7.79,3.877,8.194,8.501
		c0,0,0.24,1.152-0.258,3.215c-0.66,2.819-2.226,5.316-4.326,7.222l-11.145,9.948l-10.962-9.948
		c-2.101-1.906-3.666-4.403-4.328-7.222c-0.498-2.063-0.276-3.215-0.276-3.215c0.419-4.624,3.683-8.501,8.215-8.501
		C1446.17,36.015,1448.88,38.116,1450.152,41.117L1450.152,41.117z M1450.152,41.117"/>
	<path fill="#ED1C24" d="M1549.918,41.479c1.221-2.884,4.002-4.904,7.242-4.904c4.355,0,7.487,3.727,7.876,8.171
		c0,0,0.23,1.107-0.248,3.09c-0.635,2.71-2.139,5.109-4.158,6.941l-10.712,9.562l-10.535-9.562c-2.02-1.832-3.524-4.231-4.161-6.941
		c-0.478-1.982-0.266-3.09-0.266-3.09c0.403-4.445,3.54-8.171,7.896-8.171C1546.091,36.576,1548.695,38.595,1549.918,41.479
		L1549.918,41.479z M1549.918,41.479"/>
	<path fill="#ED1C24" d="M1649.918,41.678c1.194-2.821,3.914-4.796,7.084-4.796c4.26,0,7.321,3.645,7.701,7.991
		c0,0,0.226,1.083-0.243,3.021c-0.62,2.65-2.091,4.997-4.065,6.788l-10.477,9.351l-10.303-9.351
		c-1.975-1.791-3.446-4.138-4.068-6.788c-0.467-1.938-0.26-3.021-0.26-3.021c0.395-4.347,3.463-7.991,7.723-7.991
		C1646.177,36.882,1648.723,38.857,1649.918,41.678L1649.918,41.678z M1649.918,41.678"/>
	<path fill="#ED1C24" d="M1749.923,42.152c1.13-2.669,3.703-4.537,6.702-4.537c4.03,0,6.926,3.448,7.285,7.56
		c0,0,0.214,1.024-0.229,2.858c-0.587,2.507-1.978,4.728-3.846,6.422l-9.912,8.846l-9.746-8.846
		c-1.868-1.694-3.26-3.915-3.849-6.422c-0.441-1.833-0.245-2.858-0.245-2.858c0.372-4.112,3.275-7.56,7.306-7.56
		C1746.384,37.615,1748.792,39.483,1749.923,42.152L1749.923,42.152z M1749.923,42.152"/>
	<path fill="#ED1C24" d="M1849.923,42.152c1.13-2.669,3.703-4.537,6.702-4.537c4.03,0,6.926,3.448,7.285,7.56
		c0,0,0.214,1.024-0.229,2.858c-0.587,2.507-1.978,4.728-3.846,6.422l-9.912,8.846l-9.746-8.846
		c-1.868-1.694-3.26-3.915-3.849-6.422c-0.441-1.833-0.245-2.858-0.245-2.858c0.372-4.112,3.275-7.56,7.306-7.56
		C1846.384,37.615,1848.792,39.483,1849.923,42.152L1849.923,42.152z M1849.923,42.152"/>
	<path fill="#ED1C24" d="M1949.923,42.152c1.13-2.669,3.703-4.537,6.702-4.537c4.03,0,6.926,3.448,7.285,7.56
		c0,0,0.214,1.024-0.229,2.858c-0.587,2.507-1.978,4.728-3.846,6.422l-9.912,8.846l-9.746-8.846
		c-1.868-1.694-3.26-3.915-3.849-6.422c-0.441-1.833-0.245-2.858-0.245-2.858c0.372-4.112,3.275-7.56,7.306-7.56
		C1946.384,37.615,1948.792,39.483,1949.923,42.152L1949.923,42.152z M1949.923,42.152"/>
	<path fill="#ED1C24" d="M2049.923,42.152c1.13-2.669,3.703-4.537,6.702-4.537c4.03,0,6.926,3.448,7.285,7.56
		c0,0,0.214,1.024-0.229,2.858c-0.587,2.507-1.978,4.728-3.846,6.422l-9.912,8.846l-9.746-8.846
		c-1.868-1.694-3.26-3.915-3.849-6.422c-0.441-1.833-0.245-2.858-0.245-2.858c0.372-4.112,3.275-7.56,7.306-7.56
		C2046.384,37.615,2048.792,39.483,2049.923,42.152L2049.923,42.152z M2049.923,42.152"/>
	<path fill="#ED1C24" d="M2149.923,42.152c1.13-2.669,3.703-4.537,6.702-4.537c4.03,0,6.926,3.448,7.285,7.56
		c0,0,0.214,1.024-0.229,2.858c-0.587,2.507-1.978,4.728-3.846,6.422l-9.912,8.846l-9.746-8.846
		c-1.868-1.694-3.26-3.915-3.849-6.422c-0.441-1.833-0.245-2.858-0.245-2.858c0.372-4.112,3.275-7.56,7.306-7.56
		C2146.384,37.615,2148.792,39.483,2149.923,42.152L2149.923,42.152z M2149.923,42.152"/>
	<path fill="#ED1C24" d="M2249.923,42.152c1.13-2.669,3.703-4.537,6.702-4.537c4.03,0,6.926,3.448,7.285,7.56
		c0,0,0.214,1.024-0.229,2.858c-0.587,2.507-1.978,4.728-3.846,6.422l-9.912,8.846l-9.746-8.846
		c-1.868-1.694-3.26-3.915-3.849-6.422c-0.441-1.833-0.245-2.858-0.245-2.858c0.372-4.112,3.275-7.56,7.306-7.56
		C2246.384,37.615,2248.792,39.483,2249.923,42.152L2249.923,42.152z M2249.923,42.152"/>
	<path fill="#ED1C24" d="M2349.922,42.152c1.13-2.669,3.703-4.537,6.702-4.537c4.03,0,6.926,3.448,7.285,7.56
		c0,0,0.214,1.024-0.229,2.858c-0.587,2.507-1.978,4.728-3.846,6.422l-9.912,8.846l-9.746-8.846
		c-1.868-1.694-3.26-3.915-3.849-6.422c-0.441-1.833-0.245-2.858-0.245-2.858c0.372-4.112,3.275-7.56,7.306-7.56
		C2346.383,37.615,2348.791,39.483,2349.922,42.152L2349.922,42.152z M2349.922,42.152"/>
	<path fill="#ED1C24" d="M2449.922,42.152c1.13-2.669,3.703-4.537,6.702-4.537c4.03,0,6.926,3.448,7.285,7.56
		c0,0,0.214,1.024-0.229,2.858c-0.587,2.507-1.978,4.728-3.846,6.422l-9.912,8.846l-9.746-8.846
		c-1.868-1.694-3.26-3.915-3.849-6.422c-0.441-1.833-0.245-2.858-0.245-2.858c0.372-4.112,3.275-7.56,7.306-7.56
		C2446.383,37.615,2448.791,39.483,2449.922,42.152L2449.922,42.152z M2449.922,42.152"/>
	<path fill="#ED1C24" d="M2549.94,44.135c0.86-2.032,2.819-3.454,5.103-3.454c3.067,0,5.271,2.625,5.545,5.755
		c0,0,0.163,0.78-0.174,2.176c-0.447,1.909-1.506,3.599-2.928,4.889l-7.546,6.734l-7.419-6.734c-1.423-1.29-2.482-2.98-2.93-4.889
		c-0.337-1.396-0.188-2.176-0.188-2.176c0.283-3.13,2.494-5.755,5.562-5.755C2547.246,40.681,2549.08,42.103,2549.94,44.135
		L2549.94,44.135z M2549.94,44.135"/>
	<path fill="#ED1C24" d="M2649.965,46.679c0.515-1.214,1.686-2.064,3.05-2.064c1.833,0,3.15,1.568,3.314,3.439
		c0,0,0.097,0.466-0.104,1.3c-0.268,1.141-0.9,2.151-1.75,2.922l-4.51,4.024l-4.434-4.024c-0.85-0.771-1.483-1.781-1.751-2.922
		c-0.201-0.834-0.111-1.3-0.111-1.3c0.169-1.871,1.489-3.439,3.323-3.439C2648.355,44.615,2649.451,45.465,2649.965,46.679
		L2649.965,46.679z M2649.965,46.679"/>
	<path fill="#ED1C24" d="M2749.987,49.05c0.191-0.453,0.628-0.769,1.136-0.769c0.684,0,1.174,0.584,1.234,1.281
		c0,0,0.037,0.173-0.039,0.484c-0.099,0.425-0.335,0.801-0.651,1.088l-1.68,1.499l-1.651-1.499
		c-0.316-0.287-0.553-0.664-0.652-1.088c-0.075-0.311-0.042-0.484-0.042-0.484c0.063-0.697,0.556-1.281,1.238-1.281
		C2749.388,48.281,2749.796,48.598,2749.987,49.05L2749.987,49.05z M2749.987,49.05"/>
	<path display="none" fill="#ED1C24" d="M2849.922,42.152c1.13-2.669,3.703-4.537,6.702-4.537c4.03,0,6.926,3.448,7.285,7.56
		c0,0,0.214,1.024-0.229,2.858c-0.587,2.507-1.978,4.728-3.846,6.422l-9.912,8.846l-9.746-8.846
		c-1.868-1.694-3.26-3.915-3.849-6.422c-0.441-1.833-0.245-2.858-0.245-2.858c0.372-4.112,3.275-7.56,7.306-7.56
		C2846.383,37.615,2848.791,39.483,2849.922,42.152L2849.922,42.152z M2849.922,42.152"/>
	<g>
		<path fill="#ED1C24" d="M749.996,80C733.457,80,720,66.543,720,50.003C720,33.459,733.457,20,749.996,20
			C766.541,20,780,33.459,780,50.003C780,66.543,766.541,80,749.996,80z M749.996,20.5c-16.264,0-29.496,13.234-29.496,29.503
			c0,16.265,13.232,29.497,29.496,29.497c16.27,0,29.504-13.232,29.504-29.497C779.5,33.734,766.266,20.5,749.996,20.5z"/>
	</g>
	<path fill="#ED1C24" d="M549.997,21.583c-15.692,0-28.414,12.723-28.414,28.42c0,15.69,12.722,28.414,28.414,28.414
		c15.697,0,28.42-12.724,28.42-28.414C578.417,34.306,565.694,21.583,549.997,21.583z M549.998,70.583
		c-11.366,0-20.581-9.216-20.581-20.581c0-11.369,9.215-20.585,20.581-20.585c11.37,0,20.585,9.216,20.585,20.585
		C570.583,61.367,561.368,70.583,549.998,70.583z"/>
	<g>
		<circle fill="#ED1C24" cx="1058.766" cy="14.197" r="2.313"/>
		<circle fill="#ED1C24" cx="1051.391" cy="17.072" r="1.688"/>
		<circle fill="#ED1C24" cx="1023.904" cy="23.025" r="2.313"/>
		<circle fill="#ED1C24" cx="1023.683" cy="30.938" r="1.688"/>
		<circle fill="#ED1C24" cx="1012.166" cy="54.275" r="2.313"/>
		<circle fill="#ED1C24" cx="1018.221" cy="59.374" r="1.687"/>
		<circle fill="#ED1C24" cx="1028.529" cy="84.01" r="2.313"/>
		<circle fill="#ED1C24" cx="1036.237" cy="82.21" r="1.687"/>
		<circle fill="#ED1C24" cx="1061.049" cy="85.615" r="2.312"/>
		<circle fill="#ED1C24" cx="1067.24" cy="80.682" r="1.687"/>
		<circle fill="#ED1C24" cx="1088.022" cy="66.842" r="2.312"/>
		<circle fill="#ED1C24" cx="1085.631" cy="59.296" r="1.687"/>
		<circle fill="#ED1C24" cx="1085.805" cy="32.254" r="2.312"/>
		<circle fill="#ED1C24" cx="1078.163" cy="30.189" r="1.687"/>
	</g>
	<g>
		<circle fill="#ED1C24" cx="1158.672" cy="13.292" r="2.25"/>
		<circle fill="#ED1C24" cx="1151.172" cy="17.042" r="1.5"/>
		<circle fill="#ED1C24" cx="1122.809" cy="22.119" r="2.249"/>
		<circle fill="#ED1C24" cx="1123.463" cy="31.907" r="1.5"/>
		<circle fill="#ED1C24" cx="1111.072" cy="54.369" r="2.25"/>
		<circle fill="#ED1C24" cx="1117.002" cy="60.343" r="1.5"/>
		<circle fill="#ED1C24" cx="1128.435" cy="85.104" r="2.25"/>
		<circle fill="#ED1C24" cx="1137.019" cy="83.18" r="1.5"/>
		<circle fill="#ED1C24" cx="1160.955" cy="86.709" r="2.249"/>
		<circle fill="#ED1C24" cx="1167.02" cy="81.652" r="1.499"/>
		<circle fill="#ED1C24" cx="1188.929" cy="67.936" r="2.25"/>
		<circle fill="#ED1C24" cx="1185.412" cy="59.265" r="1.499"/>
		<circle fill="#ED1C24" cx="1186.71" cy="32.349" r="2.25"/>
		<circle fill="#ED1C24" cx="1177.945" cy="30.159" r="1.5"/>
	</g>
	<g>
		<circle fill="#ED1C24" cx="1259.171" cy="13.292" r="2.15"/>
		<circle fill="#ED1C24" cx="1251.571" cy="16.941" r="1.3"/>
		<circle fill="#ED1C24" cx="1223.309" cy="21.119" r="2.149"/>
		<circle fill="#ED1C24" cx="1223.863" cy="31.807" r="1.3"/>
		<circle fill="#ED1C24" cx="1210.571" cy="54.369" r="2.15"/>
		<circle fill="#ED1C24" cx="1218.402" cy="60.243" r="1.3"/>
		<circle fill="#ED1C24" cx="1227.935" cy="86.104" r="2.15"/>
		<circle fill="#ED1C24" cx="1237.418" cy="83.08" r="1.3"/>
		<circle fill="#ED1C24" cx="1261.454" cy="86.708" r="2.149"/>
		<circle fill="#ED1C24" cx="1267.42" cy="82.552" r="1.299"/>
		<circle fill="#ED1C24" cx="1289.428" cy="67.936" r="2.15"/>
		<circle fill="#ED1C24" cx="1285.812" cy="59.165" r="1.299"/>
		<circle fill="#ED1C24" cx="1288.21" cy="32.349" r="2.15"/>
		<circle fill="#ED1C24" cx="1278.345" cy="30.059" r="1.301"/>
	</g>
	<g>
		<circle fill="#ED1C24" cx="1359.172" cy="12.292" r="2.05"/>
		<circle fill="#ED1C24" cx="1352.472" cy="16.842" r="1.1"/>
		<circle fill="#ED1C24" cx="1323.309" cy="21.119" r="2.049"/>
		<circle fill="#ED1C24" cx="1323.763" cy="31.707" r="1.1"/>
		<circle fill="#ED1C24" cx="1309.572" cy="54.369" r="2.05"/>
		<circle fill="#ED1C24" cx="1317.302" cy="61.143" r="1.1"/>
		<circle fill="#ED1C24" cx="1327.935" cy="86.104" r="2.05"/>
		<circle fill="#ED1C24" cx="1338.319" cy="82.98" r="1.1"/>
		<circle fill="#ED1C24" cx="1361.455" cy="87.709" r="2.049"/>
		<circle fill="#ED1C24" cx="1367.321" cy="82.451" r="1.099"/>
		<circle fill="#ED1C24" cx="1390.429" cy="67.937" r="2.05"/>
		<circle fill="#ED1C24" cx="1385.712" cy="60.065" r="1.1"/>
		<circle fill="#ED1C24" cx="1389.21" cy="32.349" r="2.05"/>
		<circle fill="#ED1C24" cx="1379.245" cy="29.959" r="1.1"/>
	</g>
	<g>
		<circle fill="#ED1C24" cx="1458.172" cy="12.792" r="1.95"/>
		<circle fill="#ED1C24" cx="1450.372" cy="15.241" r="0.9"/>
		<circle fill="#ED1C24" cx="1422.309" cy="20.619" r="1.949"/>
		<circle fill="#ED1C24" cx="1422.663" cy="30.106" r="0.9"/>
		<circle fill="#ED1C24" cx="1409.571" cy="53.869" r="1.949"/>
		<circle fill="#ED1C24" cx="1417.202" cy="60.543" r="0.9"/>
		<circle fill="#ED1C24" cx="1427.935" cy="86.604" r="1.95"/>
		<circle fill="#ED1C24" cx="1437.219" cy="83.379" r="0.9"/>
		<circle fill="#ED1C24" cx="1461.455" cy="87.208" r="1.949"/>
		<circle fill="#ED1C24" cx="1468.22" cy="82.851" r="0.9"/>
		<circle fill="#ED1C24" cx="1490.428" cy="67.436" r="1.949"/>
		<circle fill="#ED1C24" cx="1485.612" cy="58.465" r="0.9"/>
		<circle fill="#ED1C24" cx="1488.21" cy="31.848" r="1.95"/>
		<circle fill="#ED1C24" cx="1478.144" cy="29.358" r="0.9"/>
	</g>
	<circle fill="#ED1C24" cx="1559.422" cy="12.042" r="1.85"/>
	<circle fill="#ED1C24" cx="1551.522" cy="16.391" r="0.7"/>
	<circle fill="#ED1C24" cx="1522.561" cy="19.869" r="1.85"/>
	<circle fill="#ED1C24" cx="1523.086" cy="30.612" r="0.7"/>
	<circle fill="#ED1C24" cx="1508.822" cy="54.119" r="1.85"/>
	<circle fill="#ED1C24" cx="1517.352" cy="60.693" r="0.7"/>
	<circle fill="#ED1C24" cx="1527.186" cy="86.854" r="1.85"/>
	<circle fill="#ED1C24" cx="1537.37" cy="84.53" r="0.7"/>
	<circle fill="#ED1C24" cx="1561.705" cy="87.458" r="1.849"/>
	<circle fill="#ED1C24" cx="1568.371" cy="83.001" r="0.7"/>
	<circle fill="#ED1C24" cx="1590.679" cy="67.686" r="1.85"/>
	<circle fill="#ED1C24" cx="1586.763" cy="59.615" r="0.7"/>
	<circle fill="#ED1C24" cx="1588.461" cy="31.099" r="1.85"/>
	<circle fill="#ED1C24" cx="1579.295" cy="29.508" r="0.701"/>
	<circle fill="#ED1C24" cx="1659.222" cy="11.841" r="1.75"/>
	<circle fill="#ED1C24" cx="1651.222" cy="16.091" r="0.5"/>
	<circle fill="#ED1C24" cx="1621.359" cy="19.669" r="1.749"/>
	<circle fill="#ED1C24" cx="1622.513" cy="30.957" r="0.5"/>
	<circle fill="#ED1C24" cx="1608.622" cy="54.919" r="1.75"/>
	<circle fill="#ED1C24" cx="1617.052" cy="61.393" r="0.5"/>
	<circle fill="#ED1C24" cx="1626.985" cy="86.654" r="1.75"/>
	<circle fill="#ED1C24" cx="1637.069" cy="84.229" r="0.5"/>
	<circle fill="#ED1C24" cx="1661.505" cy="87.259" r="1.749"/>
	<circle fill="#ED1C24" cx="1668.07" cy="83.701" r="0.499"/>
	<circle fill="#ED1C24" cx="1690.478" cy="67.486" r="1.75"/>
	<circle fill="#ED1C24" cx="1686.462" cy="59.316" r="0.5"/>
	<circle fill="#ED1C24" cx="1688.26" cy="30.898" r="1.75"/>
	<circle fill="#ED1C24" cx="1678.994" cy="29.208" r="0.5"/>
	<g>
		<circle fill="#ED1C24" cx="1758.291" cy="11.978" r="1.688"/>
		<circle fill="#ED1C24" cx="1721.147" cy="20.806" r="1.688"/>
		<circle fill="#ED1C24" cx="1708.463" cy="54.552" r="1.687"/>
		<circle fill="#ED1C24" cx="1726.212" cy="88.021" r="1.687"/>
		<circle fill="#ED1C24" cx="1759.978" cy="88.022" r="1.687"/>
		<circle fill="#ED1C24" cx="1791.536" cy="69.248" r="1.687"/>
		<circle fill="#ED1C24" cx="1788.162" cy="32.719" r="1.687"/>
	</g>
	<g>
		<circle fill="#ED1C24" cx="1859.292" cy="11.479" r="1.5"/>
		<circle fill="#ED1C24" cx="1821.147" cy="20.305" r="1.5"/>
		<circle fill="#ED1C24" cx="1808.464" cy="56.052" r="1.5"/>
		<circle fill="#ED1C24" cx="1826.213" cy="87.522" r="1.5"/>
		<circle fill="#ED1C24" cx="1861.978" cy="88.521" r="1.499"/>
		<circle fill="#ED1C24" cx="1891.536" cy="69.748" r="1.499"/>
		<circle fill="#ED1C24" cx="1889.164" cy="32.22" r="1.5"/>
	</g>
	<g>
		<circle fill="#ED1C24" cx="1959.292" cy="10.979" r="1.3"/>
		<circle fill="#ED1C24" cx="1921.148" cy="19.806" r="1.3"/>
		<circle fill="#ED1C24" cx="1908.464" cy="55.552" r="1.3"/>
		<circle fill="#ED1C24" cx="1926.212" cy="87.934" r="1.3"/>
		<circle fill="#ED1C24" cx="1961.979" cy="89.022" r="1.299"/>
		<circle fill="#ED1C24" cx="1991.537" cy="69.248" r="1.299"/>
		<circle fill="#ED1C24" cx="1990.164" cy="31.72" r="1.301"/>
	</g>
	<g>
		<circle fill="#ED1C24" cx="2059.292" cy="10.979" r="1.101"/>
		<circle fill="#ED1C24" cx="2021.147" cy="19.806" r="1.1"/>
		<circle fill="#ED1C24" cx="2007.464" cy="55.552" r="1.1"/>
		<circle fill="#ED1C24" cx="2026.214" cy="88.022" r="1.1"/>
		<circle fill="#ED1C24" cx="2061.978" cy="89.022" r="1.099"/>
		<circle fill="#ED1C24" cx="2092.535" cy="69.248" r="1.1"/>
		<circle fill="#ED1C24" cx="2090.163" cy="31.72" r="1.101"/>
	</g>
	<g>
		<circle fill="#ED1C24" cx="2160.292" cy="10.479" r="0.9"/>
		<circle fill="#ED1C24" cx="2122.147" cy="19.305" r="0.9"/>
		<circle fill="#ED1C24" cx="2107.463" cy="55.052" r="0.9"/>
		<circle fill="#ED1C24" cx="2126.213" cy="88.522" r="0.9"/>
		<circle fill="#ED1C24" cx="2161.978" cy="89.522" r="0.9"/>
		<circle fill="#ED1C24" cx="2192.536" cy="68.748" r="0.9"/>
		<circle fill="#ED1C24" cx="2191.163" cy="31.22" r="0.901"/>
	</g>
	<g>
		<circle fill="#ED1C24" cx="2259.792" cy="10.479" r="0.7"/>
		<circle fill="#ED1C24" cx="2221.647" cy="19.306" r="0.7"/>
		<circle fill="#ED1C24" cx="2206.963" cy="55.052" r="0.7"/>
		<circle fill="#ED1C24" cx="2225.713" cy="88.522" r="0.7"/>
		<circle fill="#ED1C24" cx="2262.478" cy="89.522" r="0.7"/>
		<circle fill="#ED1C24" cx="2293.036" cy="69.748" r="0.7"/>
		<circle fill="#ED1C24" cx="2290.663" cy="31.219" r="0.701"/>
	</g>
	<g>
		<circle fill="#ED1C24" cx="2359.792" cy="9.978" r="0.5"/>
		<circle fill="#ED1C24" cx="2320.648" cy="18.805" r="0.5"/>
		<circle fill="#ED1C24" cx="2306.963" cy="54.552" r="0.5"/>
		<circle fill="#ED1C24" cx="2325.713" cy="89.021" r="0.5"/>
		<circle fill="#ED1C24" cx="2362.478" cy="90.021" r="0.499"/>
		<circle fill="#ED1C24" cx="2393.036" cy="69.248" r="0.5"/>
		<circle fill="#ED1C24" cx="2391.663" cy="30.719" r="0.5"/>
	</g>
	<g>
		<circle fill="#ED1C24" cx="958.172" cy="15.291" r="2.313"/>
		<circle fill="#ED1C24" cx="951.797" cy="18.166" r="1.688"/>
		<circle fill="#ED1C24" cx="924.31" cy="23.119" r="2.313"/>
		<circle fill="#ED1C24" cx="924.089" cy="32.031" r="1.688"/>
		<circle fill="#ED1C24" cx="912.572" cy="54.369" r="2.313"/>
		<circle fill="#ED1C24" cx="918.627" cy="60.468" r="1.687"/>
		<circle fill="#ED1C24" cx="928.936" cy="83.104" r="2.313"/>
		<circle fill="#ED1C24" cx="937.644" cy="82.304" r="1.687"/>
		<circle fill="#ED1C24" cx="960.456" cy="84.708" r="2.312"/>
		<circle fill="#ED1C24" cx="966.646" cy="80.776" r="1.687"/>
		<circle fill="#ED1C24" cx="987.429" cy="65.935" r="2.312"/>
		<circle fill="#ED1C24" cx="984.038" cy="58.39" r="1.687"/>
		<circle fill="#ED1C24" cx="985.211" cy="33.348" r="2.312"/>
		<circle fill="#ED1C24" cx="977.569" cy="30.283" r="1.687"/>
	</g>
	<g>
		<circle fill="#ED1C24" cx="857.775" cy="17.493" r="2.313"/>
		<circle fill="#ED1C24" cx="851.608" cy="18.681" r="1.688"/>
		<circle fill="#ED1C24" cx="826.914" cy="25.635" r="2.313"/>
		<circle fill="#ED1C24" cx="825.381" cy="32.173" r="1.688"/>
		<circle fill="#ED1C24" cx="814.983" cy="54.571" r="2.313"/>
		<circle fill="#ED1C24" cx="819.918" cy="60.259" r="1.687"/>
		<circle fill="#ED1C24" cx="830.852" cy="81.105" r="2.313"/>
		<circle fill="#ED1C24" cx="837.934" cy="81.993" r="1.687"/>
		<circle fill="#ED1C24" cx="861.059" cy="82.506" r="2.312"/>
		<circle fill="#ED1C24" cx="866.608" cy="80.979" r="1.687"/>
		<circle fill="#ED1C24" cx="885.018" cy="65.374" r="2.312"/>
		<circle fill="#ED1C24" cx="883.5" cy="58.572" r="1.687"/>
		<circle fill="#ED1C24" cx="883.502" cy="33.88" r="2.312"/>
		<circle fill="#ED1C24" cx="877.297" cy="30.485" r="1.687"/>
	</g>
	<g>
		<circle fill="#ED1C24" cx="650.248" cy="21.156" r="2.313"/>
		<circle fill="#ED1C24" cx="654.478" cy="25.192" r="2.313"/>
		<circle fill="#ED1C24" cx="673.876" cy="32.188" r="2.313"/>
		<circle fill="#ED1C24" cx="674.617" cy="37.987" r="2.313"/>
		<circle fill="#ED1C24" cx="679.035" cy="57.199" r="2.313"/>
		<circle fill="#ED1C24" cx="674.826" cy="61.256" r="2.313"/>
		<circle fill="#ED1C24" cx="663.442" cy="77.611" r="2.313"/>
		<circle fill="#ED1C24" cx="658.327" cy="74.779" r="2.313"/>
		<circle fill="#ED1C24" cx="637.794" cy="78.844" r="2.313"/>
		<circle fill="#ED1C24" cx="634.82" cy="73.811" r="2.313"/>
		<circle fill="#ED1C24" cx="621.214" cy="59.429" r="2.313"/>
		<circle fill="#ED1C24" cx="622.899" cy="53.83" r="2.313"/>
		<circle fill="#ED1C24" cx="625.604" cy="33.43" r="2.313"/>
		<circle fill="#ED1C24" cx="631.133" cy="31.529" r="2.313"/>
	</g>
	<g>
		<circle fill="#ED1C24" cx="751.008" cy="18.366" r="1.876"/>
		<circle fill="#ED1C24" cx="756.584" cy="19.382" r="2.313"/>
		<circle fill="#ED1C24" cx="776.84" cy="30.264" r="1.876"/>
		<circle fill="#ED1C24" cx="780.302" cy="34.751" r="2.313"/>
		<circle fill="#ED1C24" cx="783.236" cy="58.005" r="1.876"/>
		<circle fill="#ED1C24" cx="782.431" cy="63.616" r="2.313"/>
		<path fill="#ED1C24" d="M762.379,79.749c0.031,1.035-0.785,1.9-1.821,1.928c-1.036,0.029-1.899-0.786-1.927-1.822
			c-0.032-1.035,0.785-1.899,1.821-1.929C761.487,77.898,762.352,78.712,762.379,79.749z"/>
		<circle fill="#ED1C24" cx="766.108" cy="80.659" r="2.313"/>
		<path fill="#ED1C24" d="M734.171,79.539c-0.182,1.019-1.158,1.698-2.179,1.513c-1.02-0.185-1.697-1.16-1.511-2.18
			c0.182-1.02,1.159-1.697,2.179-1.514C733.679,77.545,734.358,78.519,734.171,79.539z"/>
		<circle fill="#ED1C24" cx="737.633" cy="81.197" r="2.313"/>
		<circle fill="#ED1C24" cx="718.929" cy="59.67" r="1.875"/>
		<circle fill="#ED1C24" cx="717.202" cy="54.272" r="2.313"/>
		<circle fill="#ED1C24" cx="724.726" cy="31.918" r="1.875"/>
		<circle fill="#ED1C24" cx="727.456" cy="26.952" r="2.313"/>
	</g>
</g>
<g id="frame" display="none">
	<rect display="inline" fill="none" stroke="#231F20" stroke-miterlimit="10" width="100" height="100"/>
	<rect x="100" display="inline" fill="none" stroke="#231F20" stroke-miterlimit="10" width="100" height="100"/>
	<rect x="200" display="inline" fill="none" stroke="#231F20" stroke-miterlimit="10" width="100" height="100"/>
	<rect x="300" display="inline" fill="none" stroke="#231F20" stroke-miterlimit="10" width="100" height="100"/>
	<rect x="400" display="inline" fill="none" stroke="#231F20" stroke-miterlimit="10" width="100" height="100"/>
	<rect x="500" display="inline" fill="none" stroke="#231F20" stroke-miterlimit="10" width="100" height="100"/>
	<rect x="600" display="inline" fill="none" stroke="#231F20" stroke-miterlimit="10" width="100" height="100"/>
	<rect x="700" display="inline" fill="none" stroke="#231F20" stroke-miterlimit="10" width="100" height="100"/>
	<rect x="800" display="inline" fill="none" stroke="#231F20" stroke-miterlimit="10" width="100" height="100"/>
	<rect x="900" display="inline" fill="none" stroke="#231F20" stroke-miterlimit="10" width="100" height="100"/>
	<rect x="1000.094" y="-0.094" display="inline" fill="none" stroke="#231F20" stroke-miterlimit="10" width="100" height="100"/>
	<rect x="1100" display="inline" fill="none" stroke="#231F20" stroke-miterlimit="10" width="100" height="100"/>
	<rect x="1200" display="inline" fill="none" stroke="#231F20" stroke-miterlimit="10" width="100" height="100"/>
	<rect x="1300" display="inline" fill="none" stroke="#231F20" stroke-miterlimit="10" width="100" height="100"/>
	<rect x="1400" display="inline" fill="none" stroke="#231F20" stroke-miterlimit="10" width="100" height="100"/>
	<rect x="1500" display="inline" fill="none" stroke="#231F20" stroke-miterlimit="10" width="100" height="100"/>
	<rect x="1600" display="inline" fill="none" stroke="#231F20" stroke-miterlimit="10" width="100" height="100"/>
	<rect x="1700" display="inline" fill="none" stroke="#231F20" stroke-miterlimit="10" width="100" height="100"/>
	<rect x="1800" display="inline" fill="none" stroke="#231F20" stroke-miterlimit="10" width="100" height="100"/>
	<rect x="1900" display="inline" fill="none" stroke="#231F20" stroke-miterlimit="10" width="100" height="100"/>
	<rect x="2000" display="inline" fill="none" stroke="#231F20" stroke-miterlimit="10" width="100" height="100"/>
	<rect x="2100" display="inline" fill="none" stroke="#231F20" stroke-miterlimit="10" width="100" height="100"/>
	<rect x="2200" display="inline" fill="none" stroke="#231F20" stroke-miterlimit="10" width="100" height="100"/>
	<rect x="2300" display="inline" fill="none" stroke="#231F20" stroke-miterlimit="10" width="100" height="100"/>
	<rect x="2400" display="inline" fill="none" stroke="#231F20" stroke-miterlimit="10" width="100" height="100"/>
	<rect x="2500" display="inline" fill="none" stroke="#231F20" stroke-miterlimit="10" width="100" height="100"/>
	<rect x="2600" display="inline" fill="none" stroke="#231F20" stroke-miterlimit="10" width="100" height="100"/>
	<rect x="2700" display="inline" fill="none" stroke="#231F20" stroke-miterlimit="10" width="100" height="100"/>
	<rect x="2800" display="inline" fill="none" stroke="#231F20" stroke-miterlimit="10" width="100" height="100"/>
</g>
</svg>
